<svg width="891" height="886" viewBox="0 0 891 886" fill="none" xmlns="http://www.w3.org/2000/svg">
<path d="M197.472 726.696L185.037 731.755C178.199 734.537 172.709 740.012 169.745 747.002L169.126 748.463C166.409 754.874 166.359 762.193 168.988 768.698C172.329 776.961 179.553 782.851 188.044 784.233L210.32 787.86C215.005 788.622 219.751 788.847 224.473 788.529L257.761 786.288C264.99 785.802 271.442 781.499 274.865 774.881C277.476 769.833 278.078 763.903 276.542 758.357L276.464 758.073C275.106 753.171 272.215 748.867 268.253 745.848L255.451 736.096" stroke="black" stroke-width="22"/>
<path d="M274.869 628.007L234.244 622.007L211.369 664.007L199.422 715.507L177.547 746.007L174.869 782.007H274.869L263.869 746.007L245.404 715.507L274.869 628.007Z" fill="#0E0E0E"/>
<path d="M238.369 612.007C222.389 626.356 210.864 645.324 205.229 666.549L202.845 675.528C200.202 685.485 198.604 695.72 198.08 706.056L195.369 759.507" stroke="black" stroke-width="22"/>
<path d="M288.286 626.138C273.899 639.019 263.543 656.088 258.525 675.189L256.384 683.336C254.033 692.284 252.625 701.481 252.186 710.765L249.902 759.014" stroke="black" stroke-width="22"/>
<path d="M206.869 796.507H240.369L258.83 848.507L186.369 862.007L123.369 837.507L134.369 810.007H186.369L206.869 796.507Z" fill="#0E0E0E"/>
<path d="M199.369 788.507L201.738 803.118C202.134 805.56 201.332 808.043 199.583 809.793C197.343 812.033 193.959 812.671 191.056 811.402L177.499 805.47C173.785 803.846 169.776 803.007 165.723 803.007L155.112 803.007C148.086 803.007 141.195 804.942 135.196 808.6L130.378 811.538C126.162 814.109 122.934 818.025 121.214 822.654C118.795 829.168 119.597 836.443 123.379 842.273L124.561 844.095C127.68 848.904 132.286 852.563 137.676 854.515L148.417 858.404C155.001 860.788 161.95 862.007 168.953 862.007L199.842 862.007C203.521 862.007 207.194 861.721 210.829 861.152L235.845 857.234C242.923 856.125 249.308 852.345 253.684 846.672L256.079 843.568C258.837 839.992 260.148 835.509 259.751 831.011L259.627 829.596C259.156 824.259 255.949 819.547 251.156 817.151C246.596 814.871 243.457 810.486 242.768 805.434L240.869 791.507" stroke="black" stroke-width="22"/>
<path d="M611.045 637.788C627.542 651.339 639.463 669.274 645.266 689.272L647.779 697.929C650.491 707.276 652.13 716.867 652.666 726.533L655.476 777.214" stroke="black" stroke-width="22"/>
<path d="M559.466 651.145C574.319 663.311 585.031 679.45 590.2 697.446L592.456 705.301C594.868 713.7 596.312 722.318 596.761 730.999L599.128 776.748" stroke="black" stroke-width="22"/>
<path d="M644.784 811.5H611.398L593 863.103L665.214 876.5L728 852.187L717.037 824.897H665.214L644.784 811.5Z" fill="#0E0E0E"/>
<path d="M653.303 746.199L666.113 750.967C673.192 753.602 678.907 758.824 681.988 765.472L682.46 766.491C685.351 772.73 685.427 779.808 682.671 786.045C679.249 793.787 671.9 799.268 663.202 800.563L640.114 804.002C635.215 804.731 630.242 804.945 625.283 804.64L590.913 802.524C583.517 802.068 576.857 797.977 573.316 791.716C570.631 786.967 570 781.416 571.558 776.268L571.713 775.756C573.097 771.184 576.02 767.192 580.032 764.396L593.394 755.084" stroke="black" stroke-width="22"/>
<path d="M651.342 804.627L648.974 817.987C648.519 820.555 649.426 823.197 651.375 824.98C653.563 826.982 656.693 827.565 659.41 826.477L673.989 820.642C677.8 819.117 681.879 818.333 686.009 818.333L697.957 818.333C704.654 818.333 711.265 820.058 717.151 823.341L723.154 826.69C727.164 828.927 730.296 832.466 732.017 836.706C734.545 842.932 733.755 849.958 729.918 855.369L728.293 857.66C725.289 861.898 721.006 865.062 716.052 866.703L703.665 870.805C697.069 872.99 690.147 874.104 683.161 874.104L650.238 874.104C646.846 874.104 643.453 873.862 640.087 873.379L612.445 869.419C605.893 868.48 599.887 865.144 595.603 860.063L592.814 856.756C589.937 853.344 588.552 848.937 588.976 844.544L589.018 844.107C589.542 838.674 592.894 833.961 597.848 831.695C602.544 829.547 605.819 825.19 606.581 820.076L608.461 807.463" stroke="black" stroke-width="22"/>
<path d="M567 642.5L612.5 636.5L651.5 730L676 760.5L679 796.5H567L600 730L567 642.5Z" fill="#0E0E0E"/>
<path d="M891 373.5C891 582.816 693.871 752.5 447 752.5C144 732.5 0 582.816 0 373.5C0 164.184 185.629 0 432.5 0C679.371 0 891 164.184 891 373.5Z" fill="#56A5F0"/>
<path d="M714.475 117.32C727.04 109.721 743.303 112.714 752.34 124.289L849.71 249.005C852.53 252.617 854.454 256.846 855.324 261.345L873.665 356.18C874.218 359.044 874.337 361.974 874.017 364.873L867.391 424.804C865.379 443.005 847.209 454.808 829.761 449.248L826.904 448.338C821.115 446.493 814.892 446.513 809.114 448.395L785.373 456.131C777.794 458.601 771.566 464.081 768.152 471.284L731.412 548.8C729.179 553.513 728.258 558.74 728.745 563.933L734.526 625.486C735.703 638.012 728.669 649.868 717.111 654.839L626.602 693.764C609.593 701.079 590.179 690.799 586.67 672.62L570.987 591.382C569.406 583.194 564.377 576.082 557.183 571.863L493.329 534.418C489.495 532.17 486.228 529.069 483.782 525.357L466.558 499.213C462.063 492.39 460.655 483.987 462.68 476.071L467.618 456.765C469.468 449.535 474.034 443.296 480.366 439.346L515.084 417.69C518.973 415.265 523.381 413.795 527.948 413.403L627.625 404.833C630.197 404.612 632.728 404.049 635.15 403.158L690.521 382.796C700.751 379.034 706.034 367.726 702.356 357.466C700.531 352.377 696.711 348.252 691.776 346.044L650.559 327.605C645.305 325.255 639.471 324.521 633.799 325.497L568.415 336.746C556.978 338.713 545.489 333.559 539.355 323.708C534.059 315.203 533.612 304.544 538.176 295.625L540.532 291.022C545.887 280.56 543.94 267.845 535.7 259.464C532.497 256.207 530.164 252.198 528.913 247.804L527.717 243.602C523.84 229.979 530.371 215.548 543.165 209.469L631.5 167.5L714.475 117.32Z" fill="url(#paint0_linear_1_104)"/>
<path d="M368 686L458 726.5L270.139 706.25L368 686Z" fill="white"/>
<path d="M170.5 90.4266L255 153L312.5 220.5L326.5 281.5L279.5 324L200.5 341.5H117.5L81.5 387.5L98.5 447.5L170.5 547V647.5L88 589L41 480.5L56 409L29.5 334L56 210.5L170.5 90.4266Z" fill="url(#paint1_linear_1_104)"/>
<path d="M386.503 101.5C404.397 104.483 422.641 104.728 440.608 102.227L543.319 87.9299C547.714 87.3182 551.909 85.7034 555.58 83.2105C577.39 68.3997 569.631 34.5168 543.55 30.672L426.265 13.3818C417.836 12.1392 409.246 12.5513 400.974 14.5951L301.987 39.054C280.176 44.4435 276.127 73.7013 295.655 84.812C298.198 86.2593 300.978 87.2462 303.864 87.7274L386.503 101.5Z" fill="white"/>
<path d="M432.5 14.5C674.506 14.5 876.5 175.01 876.5 373.5C876.5 572.642 688.31 737.782 447.473 737.998C298.275 728.076 190.174 686.371 119.542 623.187C49.1384 560.206 14.5 474.595 14.5 373.5C14.5001 174.025 191.673 14.5 432.5 14.5Z" stroke="#56A5F0" stroke-width="29"/>
<path d="M717 104L623.801 168.34C620.274 170.775 616.529 172.877 612.614 174.618L531.882 210.532C511.858 219.44 510.91 247.509 530.289 257.747L531.482 258.378C546.594 266.361 549.589 286.73 537.415 298.725C521.314 314.592 532.549 342 555.154 342L570.156 342C572.709 342 575.252 341.689 577.73 341.073L631.446 327.732C643.733 324.681 656.708 326.174 667.98 331.937L694.016 345.249C706.527 351.645 711.148 367.203 704.158 379.393C700.489 385.79 694.143 390.204 686.869 391.419L635.169 400.052C629.399 401.016 623.56 401.5 617.71 401.5L565.126 401.5C547.965 401.5 531.061 405.666 515.866 413.641L488.235 428.143C475.564 434.793 465.929 446.052 461.317 459.599C455.755 475.939 458.06 493.932 467.561 508.343L471.6 514.469C478.73 525.282 488.688 533.934 500.392 539.482L519.563 548.571C539.366 557.959 555.773 573.255 566.524 592.352L574.368 606.287C583.305 622.161 588 640.07 588 658.287L588 710" stroke="#56A5F0" stroke-width="19"/>
<path d="M727 643.5L733.308 561.925C734.098 551.7 736.426 541.653 740.213 532.123L756.966 489.96C761.861 477.643 770.562 467.211 781.801 460.187C798.586 449.696 819.363 447.822 837.754 455.139L855 462" stroke="#56A5F0" stroke-width="17"/>
<path d="M168.5 96.9999L254.241 152.179C264.331 158.673 273.171 166.93 280.336 176.556L312.643 219.953C327.337 239.691 330.004 265.903 319.589 288.197C312.162 304.092 298.787 316.432 282.346 322.557L248.389 335.208C237.22 339.369 225.397 341.5 213.478 341.5L145.626 341.5C118.344 341.5 94.3878 359.637 86.986 385.896C81.6592 404.793 85.7658 425.099 98.0168 440.441L132 483L159.1 523.086C172.579 543.024 178.416 567.154 175.539 591.048L168.5 649.5" stroke="#56A5F0" stroke-width="16"/>
<path d="M24.9999 336L40.0814 370.316C52.6325 398.874 54.8267 430.916 46.2858 460.919L39.9999 483" stroke="#56A5F0" stroke-width="14"/>
<path d="M611.812 53.8015L565.107 75.9863C544.195 85.92 521.716 92.1471 498.673 94.3902L419.054 102.141C404.257 103.581 389.346 103.367 374.596 101.503L343.637 97.5898C309.459 93.2699 276.977 80.1949 249.337 59.6319L241.5 53.8015" stroke="#56A5F0" stroke-width="14"/>
<path d="M473.261 733.14L467.495 728.737C444.638 711.284 418.285 698.965 390.235 692.62L376.493 689.512C364.089 686.707 351.347 685.692 338.656 686.498L337.095 686.598C311.623 688.216 287.214 697.407 267 712.991" stroke="#56A5F0" stroke-width="14"/>
<path d="M632.176 662.418L584.342 577.509L534.606 603.615L560.941 619.129L520.347 640.437L522.561 655.319L551.591 651.083L545.71 680.758L569.324 684.865L592.533 700.645L632.176 662.418Z" fill="white"/>
<path d="M679.689 519.21L715.986 507.492L685.956 583.583L653.782 607.602L676.061 639.383L656.675 663.769L610.902 620.998L587.898 562.954L611.585 548.54L631.25 569.118L657.462 557.736L679.689 519.21Z" fill="#0E0E0E"/>
<path d="M662.134 607.057L675.014 634.384C677.129 638.871 677.384 644.018 675.729 648.816L675.482 649.533C673.26 655.978 667.652 660.927 660.778 662.509C653.16 664.263 645.355 661.574 640.887 655.658L613.028 618.772L587.809 581.046C584.77 576.501 583.987 570.841 585.662 565.526C588.874 555.336 600.034 549.268 610.544 551.998L612.584 552.527C616.228 553.474 619.514 555.322 622.12 557.89L633.384 568.991" stroke="black" stroke-width="19"/>
<path d="M718.992 499.263L716.083 516.432C712.824 535.659 705.603 554.217 694.843 571.013C688.008 581.683 679.816 591.53 670.465 600.317L645.24 624.022" stroke="black" stroke-width="22"/>
<path d="M677.364 516.958C673.311 530.277 666.282 542.695 656.775 553.332L656.018 554.179C650.679 560.153 644.65 565.533 638.056 570.21L615.95 585.887" stroke="black" stroke-width="22"/>
<path d="M618.818 629.178L627.078 644.032C634.097 656.655 630.586 672.532 618.899 681.018L606.999 689.6C604.406 691.469 601.553 692.949 598.531 693.991L588.557 697.431C585.003 698.658 581.077 698.122 577.981 695.987L576.426 694.916C573.852 693.141 572.44 690.111 572.737 686.999C572.905 685.242 573.607 683.579 574.75 682.234L583.134 672.372C583.454 671.996 583.487 671.454 583.216 671.042C582.857 670.495 582.106 670.375 581.594 670.783L570.732 679.438C568.869 680.923 566.654 681.899 564.301 682.272L552.792 684.098C550.604 684.445 548.362 684.091 546.388 683.087C542.157 680.935 539.897 676.211 540.876 671.567L541.313 669.494C541.94 666.518 543.571 663.849 545.932 661.932L557.387 652.636C557.979 652.155 558.11 651.304 557.692 650.667C557.328 650.114 556.642 649.868 556.01 650.064L541.673 654.518C539.856 655.082 537.972 655.402 536.071 655.469L527.833 655.759C524.12 655.89 520.608 654.074 518.568 650.97C515.301 645.996 516.748 639.31 521.779 636.133L522.913 635.417L534.107 630.289L561.217 617.869C561.779 617.612 562.219 617.147 562.446 616.573C563.239 614.564 561.175 612.615 559.215 613.523L553.106 616.352L549.722 617.584C543.52 619.84 536.645 616.784 534.165 610.668C532.151 605.702 533.595 600.002 537.731 596.594L547.594 588.469C551.44 585.3 556.023 583.151 560.919 582.221L561.727 582.067C571.751 580.163 582.092 583.022 589.715 589.805L602.173 600.89" stroke="black" stroke-width="19"/>
<path d="M200.555 522.379L174.438 496.733L175.61 542.85L193.458 589.018L218.39 620.653L196.656 660.23L215.001 681.239L257.594 642.986L299.564 585.483L280.159 565.675L253.604 583.897L230.664 566.844L200.555 522.379Z" fill="#0E0E0E"/>
<path d="M166.479 497.393L167.729 516.298C169.129 537.492 174.755 558.293 184.285 577.512C190.348 589.74 197.93 601.202 206.853 611.632L230.813 639.637" stroke="black" stroke-width="22"/>
<path d="M214.855 619.667L198.496 648.103C195.775 652.832 194.953 658.423 196.188 663.795L196.433 664.863C198.052 671.906 203.324 677.654 210.287 679.97C218.18 682.596 226.805 680.345 232.181 674.257L265.194 636.875L295.594 598.266C299.299 593.56 300.735 587.471 299.536 581.551C297.23 570.166 286.018 562.588 274.497 564.629L272.721 564.943C268.736 565.649 265.032 567.383 261.985 569.969L249.051 580.945" stroke="black" stroke-width="19"/>
<path d="M236.137 676.638L302.868 605.498L345.504 643.15L316.068 651.84L350.867 682.572L345.217 696.551L317.759 685.31L316.583 715.706L292.482 713.932L266.047 723.647L236.137 676.638Z" fill="white"/>
<path d="M249.068 655.759L238.995 667.166C232.325 676.41 233.473 689.174 241.716 697.421L245.676 701.382L256.413 712.056C258.628 714.258 261.148 716.139 263.895 717.641L273.435 722.857C276.731 724.66 280.68 724.787 284.018 723.198L285.417 722.532C288.301 721.16 290.161 718.332 290.268 715.158C290.326 713.441 289.865 711.735 288.943 710.256L281.895 698.945C281.642 698.541 281.682 698.027 281.992 697.676C282.42 697.192 283.189 697.193 283.635 697.679L293.276 708.189C294.868 709.924 296.878 711.236 299.113 712L310.232 715.801C312.334 716.52 314.603 716.551 316.696 715.89C321.093 714.5 323.918 710.34 323.565 705.773L323.366 703.188C323.137 700.227 321.916 697.405 319.896 695.164L309.693 683.849C309.195 683.297 309.184 682.476 309.666 681.93C310.105 681.432 310.839 681.299 311.446 681.608L324.993 688.494C326.669 689.345 328.449 689.974 330.285 690.362L338.119 692.019C341.891 692.817 345.766 691.564 348.261 688.738C352.049 684.45 351.567 677.89 347.181 674.017L345.81 672.806L335.467 665.809L310.387 648.843C309.888 648.505 309.532 647.997 309.39 647.421C308.873 645.321 311.238 643.748 313.05 644.985L318.582 648.76L321.489 650.412C327.378 653.757 334.809 651.827 338.089 646.1C340.617 641.686 339.995 636.122 336.539 632.235L327.648 622.235C324.217 618.374 319.878 615.398 315.025 613.575C305.188 609.881 294.223 611.278 285.863 617.292L273.588 626.123" stroke="black" stroke-width="19"/>
<path d="M208.336 520.412C211.193 535.255 217.268 549.38 226.145 561.817L226.816 562.758C231.811 569.756 237.601 576.176 244.072 581.891L265.584 600.888" stroke="black" stroke-width="22"/>
<path d="M290.5 557.625C290.5 542.324 295.142 527.383 303.812 514.775C312.482 502.168 324.772 492.486 339.06 487.01C353.347 481.534 368.96 480.521 383.835 484.104C398.711 487.688 412.149 495.699 422.376 507.08C423.097 507.85 423.968 508.464 424.935 508.884C425.902 509.304 426.946 509.52 428 509.52C429.055 509.52 430.098 509.304 431.065 508.884C432.033 508.464 432.904 507.85 433.624 507.08C443.819 495.625 457.26 487.546 472.16 483.919C487.06 480.293 502.711 481.29 517.03 486.778C531.349 492.266 543.657 501.985 552.315 514.641C560.974 527.297 565.573 542.29 565.5 557.625C565.5 589.112 544.875 612.625 524.25 633.25L448.735 706.304C446.173 709.246 443.014 711.61 439.468 713.238C435.922 714.866 432.071 715.72 428.169 715.745C424.268 715.77 420.405 714.964 416.839 713.381C413.273 711.798 410.084 709.475 407.485 706.565L331.75 633.25C311.125 612.625 290.5 589.25 290.5 557.625Z" fill="#D60000" stroke="#BD0000" stroke-width="24" stroke-linecap="round" stroke-linejoin="round"/>
<defs>
<linearGradient id="paint0_linear_1_104" x1="667" y1="104" x2="667" y2="708" gradientUnits="userSpaceOnUse">
<stop stop-color="#48D053"/>
<stop offset="1" stop-color="#48B752"/>
</linearGradient>
<linearGradient id="paint1_linear_1_104" x1="178" y1="90.4266" x2="178" y2="647.5" gradientUnits="userSpaceOnUse">
<stop stop-color="#48D053"/>
<stop offset="1" stop-color="#48B752"/>
</linearGradient>
</defs>
</svg>
