<svg width="1374" height="946" viewBox="0 0 1374 946" fill="none" xmlns="http://www.w3.org/2000/svg">
<path d="M1140 373.5C1140 582.816 942.871 752.5 696 752.5C393 732.5 249 582.816 249 373.5C249 164.184 434.629 0 681.5 0C928.371 0 1140 164.184 1140 373.5Z" fill="#56A5F0"/>
<path d="M413.603 799.689L401.168 804.748C394.33 807.53 388.84 813.005 385.877 819.995L385.257 821.456C382.54 827.867 382.49 835.186 385.12 841.691C388.46 849.954 395.685 855.844 404.175 857.226L426.451 860.853C431.136 861.615 435.882 861.84 440.605 861.522L473.893 859.281C481.121 858.795 487.573 854.492 490.996 847.874C493.607 842.826 494.209 836.896 492.674 831.35L492.595 831.066C491.237 826.164 488.347 821.86 484.384 818.841L471.582 809.089" stroke="black" stroke-width="22"/>
<path d="M860 701L905.5 695L944.5 788.5L969 819L972 855H860L893 788.5L860 701Z" fill="#0E0E0E"/>
<path d="M1102.92 355.619L1140.56 381.706L1214.14 320.062L1246.18 275.224L1301.3 287.188L1322.07 255.113L1262.65 215.79L1179.6 185.043L1160.62 217.997L1190.71 244.787L1176.14 281.174L1102.92 355.619Z" fill="#0E0E0E"/>
<path d="M1108.5 391.76L1136.45 380.541C1159.03 371.477 1180.05 357.861 1198.42 340.399L1205.02 334.126C1216.76 322.967 1227.31 310.34 1236.44 296.518L1266.13 251.582" stroke="black" stroke-width="22"/>
<path d="M1245.96 280.169L1285.47 289.645C1292.31 291.286 1299.55 290.11 1305.88 286.332L1308.08 285.016C1315.76 280.434 1320.93 271.894 1321.78 262.409C1322.81 250.862 1317.26 240.126 1307.88 235.511L1252.93 208.486L1196.85 185.115C1189.77 182.164 1181.77 182.716 1174.81 186.634C1161.3 194.246 1155.36 212.239 1161.48 227.014L1161.68 227.489C1163.78 232.562 1167.14 236.832 1171.37 239.825L1188.35 251.833" stroke="black" stroke-width="19"/>
<path d="M1310.37 229.792L1203.42 172.712L1237.86 102.678L1256.98 137.021L1285.09 79.8609L1303.99 81.48L1297.89 121.33L1335.82 110.565L1340.48 142.274L1360.01 172.345L1310.37 229.792Z" fill="white"/>
<path d="M1280.87 221.596L1297.84 229.943C1311.31 234.835 1326.42 228.527 1334.17 214.781L1338.26 207.532L1348.59 189.096C1350.56 185.569 1352.09 181.77 1353.12 177.812L1356.96 163.061C1358.23 158.179 1357.22 153.02 1354.28 149.334L1353.39 148.218C1350.71 144.865 1346.52 143.498 1342.49 144.663C1340.43 145.259 1338.54 146.481 1337.04 148.19L1324.9 162.005C1324.5 162.458 1323.9 162.595 1323.39 162.348C1322.66 161.988 1322.42 160.974 1322.89 160.216L1333.26 143.393C1334.88 140.761 1335.89 137.745 1336.19 134.624L1337.74 118.689C1338.03 115.705 1337.41 112.741 1335.97 110.278C1333.04 105.238 1327.29 103.22 1322.05 105.39L1318.17 106.998C1314.72 108.427 1311.72 111.015 1309.6 114.39L1298.31 132.396C1297.8 133.207 1296.86 133.517 1296.07 133.131C1295.3 132.753 1294.91 131.817 1295.12 130.892L1299.8 110.622C1300.36 108.202 1300.62 105.723 1300.58 103.252L1300.41 92.9312C1300.32 87.4916 1297.48 82.6966 1293.06 80.5223C1286.83 77.457 1279.31 80.4256 1275.94 87.2868L1274.45 90.3073L1268.74 106.433L1254.86 145.605C1254.6 146.342 1254.11 146.961 1253.49 147.347C1251.08 148.834 1248.43 146.276 1249.44 143.446L1252.46 135.032L1253.53 131.154C1256.03 122.076 1251.26 112.837 1243.06 110.888C1237.17 109.489 1230.96 112.257 1227.39 117.871L1216.71 134.659C1213.15 140.258 1210.85 146.685 1210.01 153.374C1208.21 167.709 1213.3 181.724 1223.4 190.293L1237.25 202.034" stroke="black" stroke-width="19"/>
<path d="M1125.06 328.639C1142.63 318.96 1158.35 305.449 1171.26 288.95L1172.08 287.898C1179.38 278.563 1185.75 268.394 1191.07 257.581L1208.32 222.519" stroke="black" stroke-width="22"/>
<path d="M491 701L450.375 695L427.5 737L415.553 788.5L393.678 819L391 855H491L480 819L461.536 788.5L491 701Z" fill="#0E0E0E"/>
<path d="M454.5 685C438.52 699.349 426.995 718.317 421.36 739.542L418.976 748.521C416.333 758.478 414.735 768.713 414.211 779.049L411.5 832.5" stroke="black" stroke-width="22"/>
<path d="M504.417 699.13C490.031 712.012 479.674 729.081 474.656 748.182L472.515 756.329C470.164 765.277 468.756 774.474 468.317 783.758L466.033 832.007" stroke="black" stroke-width="22"/>
<path d="M423 869.5H456.5L474.961 921.5L402.5 935L339.5 910.5L350.5 883H402.5L423 869.5Z" fill="#0E0E0E"/>
<path d="M937.784 870H904.399L886 921.603L958.215 935L1021 910.687L1010.04 883.397H958.215L937.784 870Z" fill="#0E0E0E"/>
<path d="M90.0936 213.926L195.464 156.382L162.502 91.2595L143.403 124.386L116.5 71.2339L97.9779 73.3907L103.51 110.892L66.4866 101.962L61.5755 132.118L42.1184 161.214L90.0936 213.926Z" fill="white"/>
<path d="M268.933 281.606L283.85 328.793L188.785 286.683L158.578 244.226L119.178 271.387L88.6249 245.347L141.512 188.502L213.628 161.625L231.795 192.732L206.328 217.05L220.739 251.261L268.933 281.606Z" fill="#0E0E0E"/>
<path d="M159.331 254.985L125.464 270.242C119.846 272.773 113.414 272.872 107.413 270.521L106.282 270.078C98.3747 266.98 92.2774 259.655 90.2663 250.837C87.9976 240.89 91.3275 230.85 98.7261 225.332L144.304 191.337L191.022 160.715C196.703 156.992 203.76 156.232 210.392 158.628C223.136 163.234 230.756 177.976 227.402 191.538L226.857 193.743C225.696 198.437 223.395 202.627 220.184 205.891L206.505 219.799" stroke="black" stroke-width="19"/>
<path d="M294.129 333.036L272.722 328.505C248.727 323.426 225.556 313.296 204.541 298.696C191.175 289.411 178.819 278.412 167.763 265.96L138.045 232.489" stroke="black" stroke-width="22"/>
<path d="M271.719 278.723C255.084 272.897 239.555 263.291 226.206 250.569L225.185 249.596C217.677 242.441 210.899 234.417 204.988 225.687L185.302 196.613" stroke="black" stroke-width="22"/>
<path d="M131.39 198.297L113.209 208.088C97.3355 216.637 77.5212 211.477 66.8025 196.004L55.933 180.207C53.6296 176.859 51.797 173.193 50.4929 169.324L46.0769 156.221C44.5274 151.624 45.1746 146.591 47.8158 142.697L49.0313 140.905C51.2707 137.604 55.0886 135.883 58.9978 136.412C61.1572 136.705 63.1997 137.667 64.8585 139.174L77.2853 150.464C77.744 150.88 78.4018 150.943 78.9063 150.619C79.5882 150.18 79.7383 149.211 79.2286 148.538L68.3059 134.122C66.4684 131.696 65.2494 128.835 64.7669 125.813L62.3865 110.909C61.9352 108.083 62.3616 105.206 63.6032 102.7C66.2372 97.3832 72.026 94.6836 77.7002 96.1255L80.5732 96.8556C84.2305 97.7849 87.5135 99.9672 89.8895 103.048L101.654 118.303C102.244 119.069 103.279 119.267 104.061 118.765C104.757 118.317 105.065 117.429 104.812 116.6L99.1316 97.9487C98.4204 95.6136 98.0096 93.1984 97.9102 90.7673L97.4828 80.3162C97.2836 75.4445 99.5737 70.8988 103.501 68.3715C109.621 64.4325 117.784 66.5124 121.718 73.0135L122.777 74.763L129.264 89.3854L144.986 124.821C145.305 125.541 145.872 126.114 146.571 126.424C149.068 127.53 151.488 124.911 150.338 122.348L146.794 114.445L145.296 110.224C142.41 102.09 146.244 93.2219 153.915 90.2888C159.983 87.969 166.901 90.0084 171.079 95.3486L181.434 108.584C185.451 113.718 188.196 119.785 189.419 126.231L189.557 126.956C192.031 140 188.493 153.328 180.01 162.921L166.488 178.214" stroke="black" stroke-width="19"/>
<path d="M415.5 861.5L417.869 876.111C418.265 878.553 417.463 881.036 415.714 882.786C413.474 885.026 410.09 885.664 407.187 884.395L393.63 878.463C389.917 876.839 385.908 876 381.855 876L371.244 876C364.217 876 357.326 877.935 351.327 881.593L346.509 884.531C342.293 887.102 339.065 891.017 337.345 895.647C334.926 902.161 335.728 909.436 339.51 915.266L340.692 917.088C343.812 921.897 348.417 925.556 353.807 927.508L364.548 931.397C371.132 933.781 378.081 935 385.084 935L415.973 935C419.652 935 423.325 934.714 426.96 934.145L451.976 930.227C459.055 929.118 465.439 925.338 469.816 919.665L472.21 916.561C474.968 912.985 476.28 908.502 475.883 904.004L475.758 902.589C475.287 897.252 472.08 892.54 467.288 890.144C462.727 887.864 459.588 883.478 458.899 878.427L457 864.5" stroke="black" stroke-width="22"/>
<path d="M904.045 696.288C920.542 709.839 932.463 727.774 938.266 747.772L940.779 756.429C943.491 765.776 945.13 775.367 945.666 785.033L948.476 835.714" stroke="black" stroke-width="22"/>
<path d="M852.466 709.645C867.319 721.811 878.031 737.95 883.2 755.946L885.456 763.801C887.868 772.2 889.311 780.818 889.761 789.499L892.128 835.248" stroke="black" stroke-width="22"/>
<path d="M946.303 804.699L959.113 809.467C966.192 812.102 971.908 817.324 974.988 823.973L975.46 824.991C978.351 831.23 978.427 838.308 975.671 844.545C972.249 852.287 964.9 857.768 956.202 859.064L933.114 862.502C928.215 863.232 923.242 863.446 918.283 863.14L883.913 861.024C876.517 860.568 869.857 856.477 866.316 850.216C863.632 845.467 863 839.916 864.558 834.768L864.713 834.256C866.097 829.684 869.021 825.692 873.032 822.896L886.394 813.584" stroke="black" stroke-width="22"/>
<path d="M944.343 863.127L941.975 876.487C941.519 879.055 942.427 881.697 944.375 883.48C946.563 885.482 949.693 886.065 952.41 884.977L966.99 879.142C970.8 877.617 974.879 876.833 979.009 876.833L990.958 876.833C997.654 876.833 1004.27 878.558 1010.15 881.841L1016.15 885.19C1020.16 887.427 1023.3 890.966 1025.02 895.206C1027.55 901.432 1026.75 908.459 1022.92 913.87L1021.29 916.161C1018.29 920.398 1014.01 923.562 1009.05 925.203L996.666 929.305C990.069 931.49 983.147 932.604 976.161 932.604L943.238 932.604C939.846 932.604 936.454 932.362 933.088 931.88L905.445 927.919C898.893 926.98 892.888 923.644 888.603 918.563L885.814 915.256C882.937 911.844 881.552 907.437 881.976 903.044L882.018 902.607C882.542 897.174 885.895 892.461 890.848 890.195C895.544 888.047 898.819 883.69 899.581 878.576L901.462 865.963" stroke="black" stroke-width="22"/>
<path d="M963.475 117.32C976.04 109.721 992.303 112.714 1001.34 124.289L1098.71 249.005C1101.53 252.617 1103.45 256.846 1104.32 261.345L1122.66 356.18C1123.22 359.044 1123.34 361.974 1123.02 364.873L1116.39 424.804C1114.38 443.005 1096.21 454.808 1078.76 449.248L1075.9 448.338C1070.11 446.493 1063.89 446.513 1058.11 448.395L1034.37 456.131C1026.79 458.601 1020.57 464.081 1017.15 471.284L980.412 548.8C978.179 553.513 977.257 558.74 977.745 563.933L983.526 625.486C984.703 638.012 977.668 649.868 966.111 654.839L875.602 693.764C858.593 701.079 839.179 690.799 835.67 672.62L819.987 591.382C818.406 583.194 813.376 576.082 806.182 571.863L742.329 534.418C738.494 532.17 735.228 529.069 732.782 525.357L715.558 499.213C711.063 492.39 709.654 483.987 711.679 476.071L716.618 456.765C718.468 449.535 723.034 443.296 729.366 439.346L764.084 417.69C767.972 415.265 772.381 413.795 776.948 413.403L876.625 404.833C879.197 404.612 881.728 404.049 884.15 403.158L939.521 382.796C949.751 379.034 955.034 367.726 951.356 357.466C949.531 352.377 945.71 348.252 940.776 346.044L899.559 327.605C894.305 325.255 888.471 324.521 882.799 325.497L817.415 336.746C805.978 338.713 794.489 333.559 788.355 323.708C783.059 315.203 782.612 304.544 787.176 295.625L789.532 291.022C794.887 280.56 792.94 267.845 784.7 259.464C781.497 256.207 779.164 252.198 777.913 247.804L776.717 243.602C772.84 229.979 779.371 215.548 792.164 209.469L880.5 167.5L963.475 117.32Z" fill="url(#paint0_linear_1_104)"/>
<path d="M617 686L707 726.5L519.139 706.25L617 686Z" fill="white"/>
<path d="M419.5 90.4266L504 153L561.5 220.5L575.5 281.5L528.5 324L449.5 341.5H366.5L330.5 387.5L347.5 447.5L419.5 547V647.5L337 589L290 480.5L305 409L278.5 334L305 210.5L419.5 90.4266Z" fill="url(#paint1_linear_1_104)"/>
<path d="M635.503 101.5C653.397 104.483 671.64 104.728 689.608 102.227L792.319 87.9299C796.714 87.3182 800.909 85.7034 804.58 83.2105C826.389 68.3997 818.631 34.5168 792.55 30.672L675.265 13.3818C666.836 12.1392 658.245 12.5513 649.974 14.5951L550.987 39.054C529.176 44.4435 525.126 73.7013 544.654 84.812C547.198 86.2593 549.977 87.2462 552.864 87.7274L635.503 101.5Z" fill="white"/>
<path d="M681.5 14.5C923.506 14.5 1125.5 175.01 1125.5 373.5C1125.5 572.642 937.309 737.782 696.473 737.998C547.275 728.076 439.174 686.371 368.542 623.187C298.138 560.206 263.5 474.595 263.5 373.5C263.5 174.025 440.673 14.5 681.5 14.5Z" stroke="#56A5F0" stroke-width="29"/>
<path d="M966 104L872.801 168.34C869.275 170.775 865.53 172.877 861.614 174.618L780.882 210.532C760.858 219.44 759.911 247.509 779.289 257.747L780.482 258.378C795.594 266.361 798.589 286.73 786.416 298.725C770.314 314.592 781.549 342 804.155 342L819.156 342C821.709 342 824.253 341.689 826.73 341.073L880.446 327.732C892.733 324.681 905.708 326.174 916.98 331.937L943.016 345.249C955.527 351.645 960.148 367.203 953.158 379.393C949.489 385.79 943.143 390.204 935.869 391.419L884.169 400.052C878.4 401.016 872.56 401.5 866.71 401.5L814.126 401.5C796.965 401.5 780.061 405.666 764.866 413.641L737.235 428.143C724.564 434.793 714.929 446.052 710.317 459.599C704.755 475.939 707.06 493.932 716.561 508.343L720.6 514.469C727.73 525.282 737.689 533.934 749.392 539.482L768.563 548.571C788.366 557.959 804.773 573.255 815.524 592.352L823.369 606.287C832.305 622.161 837 640.07 837 658.287L837 710" stroke="#56A5F0" stroke-width="19"/>
<path d="M976 643.5L982.307 561.925C983.098 551.7 985.426 541.653 989.213 532.123L1005.97 489.96C1010.86 477.643 1019.56 467.211 1030.8 460.187C1047.59 449.696 1068.36 447.822 1086.75 455.139L1104 462" stroke="#56A5F0" stroke-width="17"/>
<path d="M417.5 96.9999L503.24 152.179C513.331 158.673 522.17 166.93 529.336 176.556L561.643 219.953C576.336 239.691 579.004 265.903 568.588 288.197C561.162 304.092 547.786 316.432 531.345 322.557L497.388 335.208C486.219 339.369 474.396 341.5 462.478 341.5L394.626 341.5C367.344 341.5 343.388 359.637 335.986 385.896C330.659 404.793 334.766 425.099 347.017 440.441L381 483L408.1 523.086C421.579 543.024 427.416 567.154 424.538 591.048L417.5 649.5" stroke="#56A5F0" stroke-width="16"/>
<path d="M274 336L289.081 370.316C301.632 398.874 303.827 430.916 295.286 460.919L289 483" stroke="#56A5F0" stroke-width="14"/>
<path d="M860.812 53.8015L814.107 75.9863C793.195 85.92 770.716 92.1471 747.673 94.3902L668.053 102.141C653.257 103.581 638.345 103.367 623.596 101.503L592.637 97.5898C558.459 93.2699 525.976 80.1949 498.337 59.6319L490.5 53.8015" stroke="#56A5F0" stroke-width="14"/>
<path d="M722.26 733.14L716.495 728.737C693.637 711.284 667.285 698.965 639.235 692.62L625.492 689.512C613.088 686.707 600.347 685.692 587.655 686.498L586.095 686.598C560.622 688.216 536.214 697.407 516 712.991" stroke="#56A5F0" stroke-width="14"/>
<defs>
<linearGradient id="paint0_linear_1_104" x1="916" y1="104" x2="916" y2="708" gradientUnits="userSpaceOnUse">
<stop stop-color="#48D053"/>
<stop offset="1" stop-color="#48B752"/>
</linearGradient>
<linearGradient id="paint1_linear_1_104" x1="427" y1="90.4266" x2="427" y2="647.5" gradientUnits="userSpaceOnUse">
<stop stop-color="#48D053"/>
<stop offset="1" stop-color="#48B752"/>
</linearGradient>
</defs>
</svg>
