<svg width="1199" height="946" viewBox="0 0 1199 946" fill="none" xmlns="http://www.w3.org/2000/svg">
<path d="M1052 373.5C1052 582.816 854.871 752.5 608 752.5C305 732.5 161 582.816 161 373.5C161 164.184 346.629 0 593.5 0C840.371 0 1052 164.184 1052 373.5Z" fill="#56A5F0"/>
<path d="M1018.5 443.5L1064 437.5L1103 515L1112 563L1167 575L1171.5 608.5L1100.5 616.5L1012 608.5L1009.5 575L1048.5 565.5L1051.5 531L1018.5 443.5Z" fill="#0E0E0E"/>
<path d="M178 490L170 444.5L104.198 519.5L96.4198 567.5L49 561.5L33.5 596L106.358 621L182.84 613L185 579.5L151.296 570L148.704 535.5L178 490Z" fill="#0E0E0E"/>
<path d="M1039.55 417.042L1056.22 433.342C1074.88 451.596 1089.71 473.4 1099.82 497.47C1106.25 512.761 1110.7 528.807 1113.08 545.222L1119.5 589.5" stroke="black" stroke-width="22"/>
<path d="M772 701L817.5 695L856.5 788.5L881 819L884 855H772L805 788.5L772 701Z" fill="#0E0E0E"/>
<path d="M403 701L362.375 695L339.5 737L327.554 788.5L305.679 819L303 855H403L392 819L373.536 788.5L403 701Z" fill="#0E0E0E"/>
<path d="M1149.73 624L1028 627.546V696.445L1060.46 676.687V732.921L1078.21 739L1090.38 705.057L1119.8 728.361L1138.06 705.057L1169 688.846L1149.73 624Z" fill="white"/>
<path d="M1114 559L1154.23 566.966C1160.84 568.275 1166.72 572.004 1170.72 577.423L1171.32 578.24C1176.69 585.515 1177.76 595.105 1174.13 603.386C1170.1 612.569 1161.02 618.5 1151 618.5L1088.5 618.5L1027.14 615.138C1019.74 614.733 1012.89 611.148 1008.33 605.307C999.601 594.108 1001.64 577.943 1012.88 569.266L1015.05 567.59C1018.95 564.582 1023.56 562.64 1028.44 561.956L1049.5 559" stroke="black" stroke-width="19"/>
<path d="M1119.5 619L1138.5 619C1152.62 620.352 1163.67 631.753 1164.58 645.908L1165 652.5L1166.11 670.705C1166.34 674.548 1166.02 678.405 1165.14 682.154L1162.16 694.894C1161.12 699.355 1157.99 703.039 1153.76 704.79L1151.83 705.586C1148.23 707.075 1144.11 706.489 1141.07 704.056C1139.4 702.717 1138.16 700.904 1137.53 698.854L1132.79 683.452C1132.62 682.886 1132.1 682.5 1131.5 682.5C1130.7 682.5 1130.08 683.197 1130.16 683.995L1132.02 701.118C1132.34 703.991 1131.9 706.896 1130.76 709.552L1125.14 722.671C1124.08 725.158 1122.24 727.236 1119.9 728.599C1114.95 731.487 1108.68 730.675 1104.62 726.622L1102.54 724.537C1099.92 721.922 1098.27 718.503 1097.83 714.83L1095.69 696.599C1095.58 695.687 1094.81 695 1093.89 695C1093.07 695 1092.35 695.551 1092.14 696.344L1087.39 714.147C1086.8 716.372 1085.91 718.508 1084.75 720.497L1079.77 729.04C1077.44 733.04 1073.15 735.5 1068.52 735.5C1061.33 735.5 1055.5 729.67 1055.5 722.479L1055.5 720.5L1057.5 705.5L1062.35 669.146C1062.45 668.41 1062.26 667.664 1061.83 667.059C1060.28 664.896 1056.89 665.749 1056.55 668.385L1055.5 676.5L1054.61 680.613C1052.88 688.595 1045.07 693.715 1037.07 692.113C1030.76 690.851 1025.96 685.693 1025.16 679.308L1023.17 663.398C1022.4 657.231 1023.22 650.894 1025.49 645.109C1030.15 633.266 1040.45 624.355 1052.88 621.612L1071.5 617.5" stroke="black" stroke-width="19"/>
<path d="M1026.5 473.5C1038.03 487.99 1046.23 504.835 1050.53 522.844L1050.87 524.276C1053.28 534.391 1054.5 544.753 1054.5 555.151L1054.5 590" stroke="black" stroke-width="22"/>
<path d="M177.255 436.649L160.192 449.428C141.089 463.736 124.979 481.922 112.818 502.907C105.095 516.233 99.0468 530.546 94.8191 545.502L83.4002 585.895" stroke="black" stroke-width="22"/>
<path d="M366.5 685C350.52 699.349 338.995 718.317 333.36 739.542L330.977 748.521C328.333 758.478 326.735 768.713 326.211 779.049L323.5 832.5" stroke="black" stroke-width="22"/>
<path d="M416.418 699.13C402.031 712.012 391.674 729.081 386.656 748.182L384.515 756.329C382.164 765.277 380.757 774.474 380.317 783.758L378.033 832.007" stroke="black" stroke-width="22"/>
<path d="M92.2328 558.241L55.0272 559.811C48.9395 560.068 43.1869 562.69 38.9027 567.161L38.3181 567.771C32.5268 573.815 30.3208 582.657 32.5376 590.942C34.9804 600.07 42.3473 606.895 51.3312 608.351L107.569 617.469L163.183 623.278C169.863 623.975 176.478 621.627 181.317 616.84C190.589 607.669 190.847 592.321 181.892 582.634L180.06 580.653C176.954 577.293 173.072 574.82 168.793 573.476L150.212 567.641" stroke="black" stroke-width="19"/>
<path d="M335 869.5H368.5L386.962 921.5L314.5 935L251.5 910.5L262.5 883H314.5L335 869.5Z" fill="#0E0E0E"/>
<path d="M849.784 870H816.399L798 921.603L870.215 935L933 910.687L922.037 883.397H870.215L849.784 870Z" fill="#0E0E0E"/>
<path d="M325.603 799.689L313.168 804.748C306.33 807.53 300.84 813.005 297.877 819.995L297.258 821.456C294.54 827.867 294.49 835.186 297.12 841.691C300.46 849.954 307.685 855.844 316.175 857.226L338.451 860.853C343.136 861.615 347.883 861.84 352.605 861.522L385.893 859.281C393.121 858.795 399.573 854.492 402.996 847.874C405.607 842.826 406.209 836.896 404.674 831.35L404.595 831.066C403.238 826.164 400.347 821.86 396.384 818.841L383.582 809.089" stroke="black" stroke-width="22"/>
<path d="M181.788 491.224C169.581 503.061 160.06 517.583 153.903 533.752L153.406 535.057C149.95 544.134 147.535 553.612 146.212 563.298L141.765 595.834" stroke="black" stroke-width="22"/>
<path d="M1122 646.5C1127.09 651.737 1130.53 658.352 1131.9 665.525L1132.04 666.265" stroke="black" stroke-width="8" stroke-linecap="round"/>
<path d="M1093 652.727C1098.45 656.476 1101.83 662.556 1102.14 669.16L1102.14 669.3" stroke="black" stroke-width="8" stroke-linecap="round"/>
<path d="M49 621.5L169 625V693L137 673.5V729L119.5 735L107.5 701.5L78.5 724.5L60.5 701.5L30 685.5L49 621.5Z" fill="white"/>
<path d="M92.904 617.117L71.8796 616.618C54.1691 616.198 38.875 628.917 36.3129 646.197L33.7719 663.741C33.2132 667.598 33.2324 671.512 33.8287 675.358L35.7804 687.944C36.4795 692.452 39.3058 696.357 43.4012 698.472L45.5141 699.563C48.8982 701.311 52.988 701.115 56.2053 699.05C58.034 697.877 59.4534 696.178 60.2699 694.186L66.2168 679.677C66.446 679.118 67.0221 678.773 67.6298 678.832C68.4299 678.909 68.9871 679.645 68.8352 680.424L65.6172 696.915C65.0619 699.761 65.265 702.696 66.2066 705.433L70.8017 718.789C71.6758 721.33 73.3419 723.53 75.5635 725.078C80.3394 728.407 86.806 728.157 91.343 724.469L93.2799 722.895C96.1806 720.537 98.1703 717.269 98.9119 713.644L102.486 696.175C102.672 695.264 103.531 694.637 104.469 694.728C105.277 694.806 105.933 695.399 106.08 696.185L109.43 714.052C109.856 716.325 110.587 718.531 111.605 720.611L116.025 729.644C117.995 733.671 121.952 736.391 126.477 736.828C133.79 737.534 140.295 732.171 140.883 724.951L141.007 723.426L140.191 708.542L138.217 672.503C138.176 671.752 138.433 671.012 138.934 670.441C140.675 668.456 143.971 669.559 144.103 672.17L144.515 680.336L145.118 684.716C146.205 692.612 153.424 698.227 161.487 697.448C168.094 696.809 173.529 692.005 174.889 685.602L178.09 670.531C179.341 664.642 179.064 658.546 177.286 652.808L176.961 651.76C173.306 639.966 164.312 630.528 152.594 626.19L133.288 619.043" stroke="black" stroke-width="19"/>
<path d="M80.0329 644.497C74.5051 649.126 70.5055 655.292 68.5568 662.189L68.362 662.878" stroke="black" stroke-width="8" stroke-linecap="round"/>
<path d="M108.699 653.412C102.942 656.545 99.0226 662.309 98.1831 668.754" stroke="black" stroke-width="8" stroke-linecap="round"/>
<path d="M327.5 861.5L329.869 876.111C330.265 878.553 329.464 881.036 327.714 882.786C325.474 885.026 322.09 885.664 319.187 884.395L305.63 878.463C301.917 876.839 297.908 876 293.855 876L283.244 876C276.217 876 269.326 877.935 263.327 881.593L258.509 884.531C254.293 887.102 251.065 891.017 249.345 895.647C246.926 902.161 247.729 909.436 251.51 915.266L252.692 917.088C255.812 921.897 260.417 925.556 265.807 927.508L276.548 931.397C283.132 933.781 290.082 935 297.084 935L327.973 935C331.652 935 335.326 934.714 338.96 934.145L363.976 930.227C371.055 929.118 377.439 925.338 381.816 919.665L384.21 916.561C386.968 912.985 388.28 908.502 387.883 904.004L387.758 902.589C387.287 897.252 384.08 892.54 379.288 890.144C374.728 887.864 371.588 883.478 370.899 878.427L369 864.5" stroke="black" stroke-width="22"/>
<path d="M816.045 696.288C832.542 709.839 844.463 727.774 850.266 747.772L852.779 756.429C855.491 765.776 857.13 775.367 857.666 785.033L860.476 835.714" stroke="black" stroke-width="22"/>
<path d="M764.466 709.645C779.319 721.811 790.031 737.95 795.2 755.946L797.456 763.801C799.868 772.2 801.311 780.818 801.761 789.499L804.128 835.248" stroke="black" stroke-width="22"/>
<path d="M858.303 804.699L871.113 809.467C878.192 812.102 883.908 817.324 886.988 823.973L887.46 824.991C890.351 831.23 890.427 838.308 887.671 844.545C884.249 852.287 876.9 857.768 868.202 859.064L845.114 862.502C840.215 863.232 835.242 863.446 830.283 863.14L795.913 861.024C788.517 860.568 781.857 856.477 778.316 850.216C775.632 845.467 775 839.916 776.558 834.768L776.713 834.256C778.097 829.684 781.021 825.692 785.032 822.896L798.394 813.584" stroke="black" stroke-width="22"/>
<path d="M856.343 863.127L853.975 876.487C853.519 879.055 854.427 881.697 856.375 883.48C858.563 885.482 861.693 886.065 864.41 884.977L878.99 879.142C882.8 877.617 886.879 876.833 891.009 876.833L902.958 876.833C909.654 876.833 916.266 878.558 922.151 881.841L928.154 885.19C932.164 887.427 935.296 890.966 937.018 895.206C939.545 901.432 938.755 908.459 934.918 913.87L933.294 916.161C930.289 920.398 926.006 923.562 921.052 925.203L908.666 929.305C902.069 931.49 895.147 932.604 888.161 932.604L855.238 932.604C851.846 932.604 848.454 932.362 845.088 931.88L817.445 927.919C810.893 926.98 804.888 923.644 800.603 918.563L797.814 915.256C794.937 911.844 793.552 907.437 793.976 903.044L794.018 902.607C794.542 897.174 797.895 892.461 802.848 890.195C807.544 888.047 810.819 883.69 811.581 878.576L813.462 865.963" stroke="black" stroke-width="22"/>
<path d="M875.475 117.32C888.04 109.721 904.303 112.714 913.34 124.289L1010.71 249.005C1013.53 252.617 1015.45 256.846 1016.32 261.345L1034.66 356.18C1035.22 359.044 1035.34 361.974 1035.02 364.873L1028.39 424.804C1026.38 443.005 1008.21 454.808 990.761 449.248L987.904 448.338C982.115 446.493 975.892 446.513 970.114 448.395L946.373 456.131C938.794 458.601 932.566 464.081 929.152 471.284L892.412 548.8C890.179 553.513 889.257 558.74 889.745 563.933L895.526 625.486C896.703 638.012 889.668 649.868 878.111 654.839L787.602 693.764C770.593 701.079 751.179 690.799 747.67 672.62L731.987 591.382C730.406 583.194 725.376 576.082 718.182 571.863L654.329 534.418C650.494 532.17 647.228 529.069 644.782 525.357L627.558 499.213C623.063 492.39 621.654 483.987 623.679 476.071L628.618 456.765C630.468 449.535 635.034 443.296 641.366 439.346L676.084 417.69C679.972 415.265 684.381 413.795 688.948 413.403L788.625 404.833C791.197 404.612 793.728 404.049 796.15 403.158L851.521 382.796C861.751 379.034 867.034 367.726 863.356 357.466C861.531 352.377 857.71 348.252 852.776 346.044L811.559 327.605C806.305 325.255 800.471 324.521 794.799 325.497L729.415 336.746C717.978 338.713 706.489 333.559 700.355 323.708C695.059 315.203 694.612 304.544 699.176 295.625L701.532 291.022C706.887 280.56 704.94 267.845 696.7 259.464C693.497 256.207 691.164 252.198 689.913 247.804L688.717 243.602C684.84 229.979 691.371 215.548 704.164 209.469L792.5 167.5L875.475 117.32Z" fill="url(#paint0_linear_1_104)"/>
<path d="M529 686L619 726.5L431.139 706.25L529 686Z" fill="white"/>
<path d="M331.5 90.4266L416 153L473.5 220.5L487.5 281.5L440.5 324L361.5 341.5H278.5L242.5 387.5L259.5 447.5L331.5 547V647.5L249 589L202 480.5L217 409L190.5 334L217 210.5L331.5 90.4266Z" fill="url(#paint1_linear_1_104)"/>
<path d="M547.503 101.5C565.397 104.483 583.64 104.728 601.608 102.227L704.319 87.9299C708.714 87.3182 712.909 85.7034 716.58 83.2105C738.389 68.3997 730.631 34.5168 704.55 30.672L587.265 13.3818C578.836 12.1392 570.245 12.5513 561.974 14.5951L462.987 39.054C441.176 44.4435 437.127 73.7013 456.654 84.812C459.198 86.2593 461.977 87.2462 464.864 87.7274L547.503 101.5Z" fill="white"/>
<path d="M593.5 14.5C835.506 14.5 1037.5 175.01 1037.5 373.5C1037.5 572.642 849.31 737.782 608.473 737.998C459.275 728.076 351.174 686.371 280.542 623.187C210.138 560.206 175.5 474.595 175.5 373.5C175.5 174.025 352.673 14.5 593.5 14.5Z" stroke="#56A5F0" stroke-width="29"/>
<path d="M878 104L784.801 168.34C781.275 170.775 777.53 172.877 773.614 174.618L692.882 210.532C672.858 219.44 671.911 247.509 691.289 257.747L692.482 258.378C707.594 266.361 710.589 286.73 698.416 298.725C682.314 314.592 693.549 342 716.155 342L731.156 342C733.709 342 736.253 341.689 738.73 341.073L792.446 327.732C804.733 324.681 817.708 326.174 828.98 331.937L855.016 345.249C867.527 351.645 872.148 367.203 865.158 379.393C861.489 385.79 855.143 390.204 847.869 391.419L796.169 400.052C790.4 401.016 784.56 401.5 778.71 401.5L726.126 401.5C708.965 401.5 692.061 405.666 676.866 413.641L649.235 428.143C636.564 434.793 626.929 446.052 622.317 459.599C616.755 475.939 619.06 493.932 628.561 508.343L632.6 514.469C639.73 525.282 649.689 533.934 661.392 539.482L680.563 548.571C700.366 557.959 716.773 573.255 727.524 592.352L735.369 606.287C744.305 622.161 749 640.07 749 658.287L749 710" stroke="#56A5F0" stroke-width="19"/>
<path d="M888 643.5L894.307 561.925C895.098 551.7 897.426 541.653 901.213 532.123L917.966 489.96C922.86 477.643 931.562 467.211 942.801 460.187C959.586 449.696 980.363 447.822 998.754 455.139L1016 462" stroke="#56A5F0" stroke-width="17"/>
<path d="M329.5 96.9999L415.241 152.179C425.331 158.673 434.171 166.93 441.336 176.556L473.643 219.953C488.336 239.691 491.004 265.903 480.588 288.197C473.162 304.092 459.786 316.432 443.346 322.557L409.389 335.208C398.219 339.369 386.397 341.5 374.478 341.5L306.626 341.5C279.344 341.5 255.388 359.637 247.986 385.896C242.659 404.793 246.766 425.099 259.017 440.441L293 483L320.1 523.086C333.579 543.024 339.416 567.154 336.539 591.048L329.5 649.5" stroke="#56A5F0" stroke-width="16"/>
<path d="M186 336L201.081 370.316C213.633 398.874 215.827 430.916 207.286 460.919L201 483" stroke="#56A5F0" stroke-width="14"/>
<path d="M772.812 53.8016L726.107 75.9865C705.195 85.9201 682.716 92.1472 659.673 94.3903L580.053 102.141C565.257 103.581 550.346 103.367 535.596 101.503L504.637 97.59C470.459 93.27 437.977 80.195 410.337 59.632L402.5 53.8016" stroke="#56A5F0" stroke-width="14"/>
<path d="M634.261 733.14L628.495 728.737C605.638 711.284 579.285 698.965 551.235 692.62L537.492 689.512C525.089 686.707 512.347 685.692 499.655 686.498L498.095 686.598C472.623 688.216 448.214 697.407 428 712.991" stroke="#56A5F0" stroke-width="14"/>
<defs>
<linearGradient id="paint0_linear_1_104" x1="828" y1="104" x2="828" y2="708" gradientUnits="userSpaceOnUse">
<stop stop-color="#48D053"/>
<stop offset="1" stop-color="#48B752"/>
</linearGradient>
<linearGradient id="paint1_linear_1_104" x1="339" y1="90.4266" x2="339" y2="647.5" gradientUnits="userSpaceOnUse">
<stop stop-color="#48D053"/>
<stop offset="1" stop-color="#48B752"/>
</linearGradient>
</defs>
</svg>
